<svg width="140" height="140" viewBox="0 0 140 140" fill="none" xmlns="http://www.w3.org/2000/svg">
<path d="M30.6782 68.4042L65.995 54.1353L30.9326 39.2522C24.448 36.4997 17.3592 36.7121 11.9296 39.3059C6.54608 41.8776 2.7931 46.7719 2.73365 53.5832C2.67421 60.3945 6.3412 65.3536 11.679 68.0189C17.0625 70.707 24.1465 71.0431 30.6782 68.4042Z" fill="#F10D88" stroke="black" stroke-width="3"/>
<path d="M109.225 71.5622L73.9085 85.8311L108.971 100.714C115.456 103.467 122.544 103.254 127.974 100.661C133.357 98.0888 137.11 93.1945 137.17 86.3832C137.229 79.5718 133.562 74.6127 128.225 71.9475C122.841 69.2594 115.757 68.9232 109.225 71.5622Z" fill="#94E610" stroke="black" stroke-width="3"/>
<path d="M70.7904 30.6785L85.0593 65.9952L99.9424 30.9329C102.695 24.4482 102.483 17.3595 99.8887 11.9298C97.317 6.54637 92.4227 2.79339 85.6113 2.73395C78.8 2.67451 73.8409 6.34149 71.1756 11.6793C68.4875 17.0628 68.1514 24.1468 70.7904 30.6785Z" fill="#FF5F05" stroke="black" stroke-width="3"/>
<path d="M68.4041 109.225L54.1352 73.9088L39.2521 108.971C36.4996 115.456 36.712 122.544 39.3058 127.974C41.8775 133.358 46.7718 137.111 53.5832 137.17C60.3945 137.229 65.3536 133.562 68.0189 128.225C70.707 122.841 71.0431 115.757 68.4041 109.225Z" fill="#147CDC" stroke="black" stroke-width="3"/>
<path d="M78.426 56.5653L64.2737 21.5372C61.6556 15.0573 56.5338 10.2339 50.906 8.24486C45.3265 6.27285 39.2622 7.07343 34.4436 11.8086C29.625 16.5438 28.7187 22.5932 30.5931 28.2063C32.4836 33.8679 37.2169 39.0731 43.6502 41.8039L78.426 56.5653Z" fill="#DF1616" stroke="black" stroke-width="3"/>
<path d="M95.3576 97.8706L60.5817 83.1092L74.734 118.137C77.3521 124.617 82.4739 129.441 88.1017 131.43C93.6813 133.402 99.7455 132.601 104.564 127.866C109.383 123.131 110.289 117.081 108.415 111.468C106.524 105.807 101.791 100.601 95.3576 97.8706Z" fill="#08CB6E" stroke="black" stroke-width="3"/>
<path d="M41.5905 95.359L56.352 60.5833L21.3238 74.7355C14.8439 77.3536 10.0205 82.4754 8.03145 88.1032C6.05943 93.6827 6.86001 99.7469 11.5952 104.566C16.3304 109.384 22.3798 110.29 27.9929 108.416C33.6545 106.526 38.8598 101.792 41.5905 95.359Z" fill="#A221DF" stroke="black" stroke-width="3"/>
<path d="M56 69.476C56 76.9319 62.0441 82.976 69.5 82.976C76.9558 82.976 83 76.9319 83 69.476C83 62.0202 76.9558 55.9761 69.5 55.9761C62.0441 55.9761 56 62.0202 56 69.476Z" fill="white" stroke="black" stroke-width="8"/>
<path d="M82.4903 79.4434L117.518 65.2911C123.998 62.673 128.822 57.5512 130.811 51.9235C132.783 46.3439 131.982 40.2797 127.247 35.4611C122.512 30.6426 116.463 29.7363 110.849 31.6106C105.188 33.5011 99.9825 38.2344 97.2518 44.6676L82.4903 79.4434Z" fill="#FFE81D" stroke="black" stroke-width="3"/>
</svg>
